<svg id="Layer_1" data-name="Layer 1" xmlns="http://www.w3.org/2000/svg" viewBox="0 0 27.86 24.1"><defs><style>.cls-1{fill:#d87554;}.cls-2{fill:#cc5a32;}</style></defs><path class="cls-1" d="M33.63,255.48c1.09,7.28,3.2,14.48,4.19,21.76l1.25.08a29.13,29.13,0,0,1,4.67,0c3.22-.12,6.47-.12,9.7-.11,1.1-6.88,2.41-13.73,3.13-20.64a.68.68,0,0,1,0-.14v-1Z" transform="translate(-31.67 -253.23)"/><path class="cls-2" d="M58.34,256.78c.15-.48.31-.95.49-1.41a16.77,16.77,0,0,1,.71-2.14H31.67c.19.71.34,1.44.47,2.18v0c.21.86.34,1.74.48,2.62a11,11,0,0,1,.24,1.17H57.61C57.85,258.41,58.09,257.59,58.34,256.78Z" transform="translate(-31.67 -253.23)"/></svg>